<svg width="20" height="16" viewBox="0 0 20 16" fill="none" xmlns="http://www.w3.org/2000/svg">
<path d="M5.35714 0C4.38988 0 3.49702 0.228275 2.67857 0.684825C1.86012 1.12754 1.20536 1.72936 0.714286 2.49027C0.238095 3.25119 0 4.08128 0 4.98055C0 5.74146 0.297619 6.53005 0.892857 7.3463C1.1756 7.74751 1.46577 8.07263 1.76339 8.32166L10 16L18.5045 8.07263C18.7277 7.85128 18.936 7.61608 19.1295 7.36706C19.3824 7.02118 19.5833 6.6684 19.7321 6.30869C19.9107 5.85214 20 5.40943 20 4.98055C20 4.08128 19.7545 3.25119 19.2634 2.49027C18.7872 1.72936 18.1399 1.12754 17.3214 0.684825C16.503 0.228275 15.6101 0 14.6429 0C12.9167 0 11.369 0.650238 10 1.95071C8.63095 0.650238 7.08333 0 5.35714 0ZM5.35714 1.32815C5.84821 1.32815 6.36161 1.43191 6.89732 1.63943C7.32887 1.79161 7.76786 2.00605 8.21429 2.28275C8.52679 2.49027 8.83185 2.71163 9.12946 2.94682L9.46429 3.25811L10 3.81842L10.5357 3.25811L10.8705 2.94682C11.1682 2.71163 11.4732 2.49027 11.7857 2.28275C12.2321 2.00605 12.6711 1.79161 13.1027 1.63943C13.6384 1.43191 14.1518 1.32815 14.6429 1.32815C15.3571 1.32815 16.0119 1.49416 16.6071 1.8262C17.2173 2.15824 17.6935 2.60787 18.0357 3.1751C18.3929 3.72849 18.5714 4.33031 18.5714 4.98055C18.5714 5.28491 18.4524 5.64462 18.2143 6.05966C18.0506 6.36403 17.8423 6.67531 17.5893 6.99352L17.2321 7.38781L10 14.1115L2.54464 7.18029C2.38095 6.9866 2.2247 6.79291 2.07589 6.59922C1.88244 6.33636 1.73363 6.0735 1.62946 5.81064C1.49554 5.50627 1.42857 5.22957 1.42857 4.98055C1.42857 4.33031 1.5997 3.72849 1.94196 3.1751C2.29911 2.60787 2.7753 2.15824 3.37054 1.8262C3.98065 1.49416 4.64286 1.32815 5.35714 1.32815Z" fill="black"/>
</svg>
